<svg id="visual" viewBox="0 0 675 900" width="675" height="900" xmlns="http://www.w3.org/2000/svg" xmlns:xlink="http://www.w3.org/1999/xlink" version="1.1"><g><g transform="translate(349 220)"><path d="M105 -33.5C119.7 11.2 104 66.4 67.1 93.5C30.1 120.7 -28.1 119.8 -63.7 92.8C-99.2 65.7 -112 12.6 -97.6 -31.7C-83.2 -76 -41.6 -111.4 1.8 -112C45.1 -112.6 90.3 -78.3 105 -33.5Z" stroke="#6600FF" fill="none" stroke-width="30"></path></g><g transform="translate(194 776)"><path d="M108.1 -33.8C121.8 7.1 102 60.1 64.9 86.5C27.7 112.8 -26.9 112.4 -62.7 86.4C-98.5 60.3 -115.6 8.6 -102 -32.1C-88.4 -72.8 -44.2 -102.5 1.5 -103C47.2 -103.5 94.4 -74.7 108.1 -33.8Z" stroke="#6600FF" fill="none" stroke-width="30"></path></g><g transform="translate(545 622)"><path d="M83.7 -25.5C95.2 8.3 82.2 51.8 50.9 75.9C19.5 100.1 -30.1 104.9 -62.9 82.2C-95.7 59.4 -111.5 9 -98.3 -27.3C-85 -63.5 -42.5 -85.6 -3.2 -84.6C36.1 -83.5 72.2 -59.4 83.7 -25.5Z" stroke="#6600FF" fill="none" stroke-width="30"></path></g></g></svg>