<svg id="visual" viewBox="0 0 675 900" width="675" height="900" xmlns="http://www.w3.org/2000/svg" xmlns:xlink="http://www.w3.org/1999/xlink" version="1.1"><rect x="0" y="0" width="675" height="900" fill="#001220"></rect><defs><linearGradient id="grad1_0" x1="0%" y1="0%" x2="100%" y2="100%"><stop offset="30%" stop-color="#001220" stop-opacity="1"></stop><stop offset="70%" stop-color="#001220" stop-opacity="1"></stop></linearGradient></defs><defs><linearGradient id="grad2_0" x1="0%" y1="0%" x2="100%" y2="100%"><stop offset="30%" stop-color="#001220" stop-opacity="1"></stop><stop offset="70%" stop-color="#001220" stop-opacity="1"></stop></linearGradient></defs><g transform="translate(675, 0)"><path d="M0 281.3C-38.4 279.1 -76.8 276.9 -107.6 259.8C-138.5 242.7 -161.7 210.7 -181.7 181.7C-201.8 152.8 -218.6 127 -234.7 97.2C-250.7 67.4 -266 33.7 -281.2 0L0 0Z" fill="#3e26ec"></path></g><g transform="translate(0, 900)"><path d="M0 -281.2C40.6 -280.9 81.3 -280.5 107.6 -259.8C134 -239.2 146 -198.4 171.8 -171.8C197.6 -145.3 237.2 -133 257.8 -106.8C278.3 -80.5 279.8 -40.3 281.3 0L0 0Z" fill="#3e26ec"></path></g></svg>