<svg id="visual" viewBox="0 0 900 600" width="900" height="600" xmlns="http://www.w3.org/2000/svg" xmlns:xlink="http://www.w3.org/1999/xlink" version="1.1"><path d="M0 363L21.5 376C43 389 86 415 128.8 428C171.7 441 214.3 441 257.2 437.8C300 434.7 343 428.3 385.8 424.3C428.7 420.3 471.3 418.7 514.2 414.5C557 410.3 600 403.7 642.8 407.3C685.7 411 728.3 425 771.2 424.7C814 424.3 857 409.7 878.5 402.3L900 395L900 601L878.5 601C857 601 814 601 771.2 601C728.3 601 685.7 601 642.8 601C600 601 557 601 514.2 601C471.3 601 428.7 601 385.8 601C343 601 300 601 257.2 601C214.3 601 171.7 601 128.8 601C86 601 43 601 21.5 601L0 601Z" fill="#69affa"></path><path d="M0 431L21.5 431.3C43 431.7 86 432.3 128.8 439.7C171.7 447 214.3 461 257.2 456.8C300 452.7 343 430.3 385.8 426.3C428.7 422.3 471.3 436.7 514.2 448.3C557 460 600 469 642.8 473.5C685.7 478 728.3 478 771.2 469.7C814 461.3 857 444.7 878.5 436.3L900 428L900 601L878.5 601C857 601 814 601 771.2 601C728.3 601 685.7 601 642.8 601C600 601 557 601 514.2 601C471.3 601 428.7 601 385.8 601C343 601 300 601 257.2 601C214.3 601 171.7 601 128.8 601C86 601 43 601 21.5 601L0 601Z" fill="#3d98fe"></path><path d="M0 496L21.5 490.5C43 485 86 474 128.8 469.7C171.7 465.3 214.3 467.7 257.2 468.8C300 470 343 470 385.8 467.5C428.7 465 471.3 460 514.2 464.3C557 468.7 600 482.3 642.8 480.8C685.7 479.3 728.3 462.7 771.2 453.3C814 444 857 442 878.5 441L900 440L900 601L878.5 601C857 601 814 601 771.2 601C728.3 601 685.7 601 642.8 601C600 601 557 601 514.2 601C471.3 601 428.7 601 385.8 601C343 601 300 601 257.2 601C214.3 601 171.7 601 128.8 601C86 601 43 601 21.5 601L0 601Z" fill="#007fff"></path><path d="M0 519L21.5 515.7C43 512.3 86 505.7 128.8 500.5C171.7 495.3 214.3 491.7 257.2 495.3C300 499 343 510 385.8 513.7C428.7 517.3 471.3 513.7 514.2 516.2C557 518.7 600 527.3 642.8 524.7C685.7 522 728.3 508 771.2 503.7C814 499.3 857 504.7 878.5 507.3L900 510L900 601L878.5 601C857 601 814 601 771.2 601C728.3 601 685.7 601 642.8 601C600 601 557 601 514.2 601C471.3 601 428.7 601 385.8 601C343 601 300 601 257.2 601C214.3 601 171.7 601 128.8 601C86 601 43 601 21.5 601L0 601Z" fill="#0063ff"></path><path d="M0 558L21.5 557C43 556 86 554 128.8 555.8C171.7 557.7 214.3 563.3 257.2 559.3C300 555.3 343 541.7 385.8 541.7C428.7 541.7 471.3 555.3 514.2 563C557 570.7 600 572.3 642.8 571.7C685.7 571 728.3 568 771.2 561.5C814 555 857 545 878.5 540L900 535L900 601L878.5 601C857 601 814 601 771.2 601C728.3 601 685.7 601 642.8 601C600 601 557 601 514.2 601C471.3 601 428.7 601 385.8 601C343 601 300 601 257.2 601C214.3 601 171.7 601 128.8 601C86 601 43 601 21.5 601L0 601Z" fill="#0c3fff"></path></svg>