<svg id="visual" viewBox="0 0 900 600" width="900" height="600" xmlns="http://www.w3.org/2000/svg" xmlns:xlink="http://www.w3.org/1999/xlink" version="1.1"><rect x="0" y="0" width="900" height="600" fill="#001220"></rect><path d="M0 446L21.5 455.5C43 465 86 484 128.8 493C171.7 502 214.3 501 257.2 487.7C300 474.3 343 448.7 385.8 437.2C428.7 425.7 471.3 428.3 514.2 435.8C557 443.3 600 455.7 642.8 463.2C685.7 470.7 728.3 473.3 771.2 477.8C814 482.3 857 488.7 878.5 491.8L900 495L900 601L878.5 601C857 601 814 601 771.2 601C728.3 601 685.7 601 642.8 601C600 601 557 601 514.2 601C471.3 601 428.7 601 385.8 601C343 601 300 601 257.2 601C214.3 601 171.7 601 128.8 601C86 601 43 601 21.5 601L0 601Z" fill="#0d096e"></path><path d="M0 510L21.5 504.2C43 498.3 86 486.7 128.8 479.7C171.7 472.7 214.3 470.3 257.2 467.3C300 464.3 343 460.7 385.8 461.8C428.7 463 471.3 469 514.2 474C557 479 600 483 642.8 490.7C685.7 498.3 728.3 509.7 771.2 506C814 502.3 857 483.7 878.5 474.3L900 465L900 601L878.5 601C857 601 814 601 771.2 601C728.3 601 685.7 601 642.8 601C600 601 557 601 514.2 601C471.3 601 428.7 601 385.8 601C343 601 300 601 257.2 601C214.3 601 171.7 601 128.8 601C86 601 43 601 21.5 601L0 601Z" fill="#1d37b3"></path><path d="M0 529L21.5 530C43 531 86 533 128.8 530.7C171.7 528.3 214.3 521.7 257.2 522.8C300 524 343 533 385.8 531.8C428.7 530.7 471.3 519.3 514.2 515.5C557 511.7 600 515.3 642.8 521.2C685.7 527 728.3 535 771.2 533.5C814 532 857 521 878.5 515.5L900 510L900 601L878.5 601C857 601 814 601 771.2 601C728.3 601 685.7 601 642.8 601C600 601 557 601 514.2 601C471.3 601 428.7 601 385.8 601C343 601 300 601 257.2 601C214.3 601 171.7 601 128.8 601C86 601 43 601 21.5 601L0 601Z" fill="#0066ff"></path></svg>