<svg id="visual" viewBox="0 0 900 600" width="900" height="600" xmlns="http://www.w3.org/2000/svg" xmlns:xlink="http://www.w3.org/1999/xlink" version="1.1"><path d="M0 408L21.5 418.2C43 428.3 86 448.7 128.8 466.7C171.7 484.7 214.3 500.3 257.2 489.2C300 478 343 440 385.8 436.5C428.7 433 471.3 464 514.2 483.2C557 502.3 600 509.7 642.8 498.8C685.7 488 728.3 459 771.2 445.8C814 432.7 857 435.3 878.5 436.7L900 438L900 601L878.5 601C857 601 814 601 771.2 601C728.3 601 685.7 601 642.8 601C600 601 557 601 514.2 601C471.3 601 428.7 601 385.8 601C343 601 300 601 257.2 601C214.3 601 171.7 601 128.8 601C86 601 43 601 21.5 601L0 601Z" fill="#0066FF" stroke-linecap="round" stroke-linejoin="miter"></path></svg>