<svg xmlns="http://www.w3.org/2000/svg" version="1.1" xmlns:xlink="http://www.w3.org/1999/xlink" xmlns:svgjs="http://svgjs.dev/svgjs" width="1440" height="560" preserveAspectRatio="none" viewBox="0 0 1440 560"><g mask="url(&quot;#SvgjsMask1622&quot;)" fill="none"><rect width="1440" height="560" x="0" y="0" fill="url(&quot;#SvgjsRadialGradient1623&quot;)"></rect><path d="M 0,65 C 72,100.2 216,244 360,241 C 504,238 576,68.6 720,50 C 864,31.4 936,146 1080,148 C 1224,150 1368,77.6 1440,60L1440 560L0 560z" fill="rgba(2, 40, 77, 1)"></path><path d="M 0,351 C 96,371 288,449.8 480,451 C 672,452.2 768,346.4 960,357 C 1152,367.6 1344,474.6 1440,504L1440 560L0 560z" fill="rgba(5, 57, 114, 1)"></path></g><defs><mask id="SvgjsMask1622"><rect width="1440" height="560" fill="#ffffff"></rect></mask><radialGradient cx="50%" cy="50%" r="772.53" gradientUnits="userSpaceOnUse" id="SvgjsRadialGradient1623"><stop stop-color="#0e2a47" offset="0"></stop><stop stop-color="rgba(0, 32, 73, 1)" offset="0.11"></stop><stop stop-color="rgba(0, 32, 73, 1)" offset="0.12"></stop><stop stop-color="rgba(42, 114, 207, 1)" offset="1"></stop></radialGradient></defs></svg>